<svg id="Слой_1" data-name="Слой 1" xmlns="http://www.w3.org/2000/svg" viewBox="0 0 1928.8 283.36"><defs><style>.cls-1{fill:#606060;}.cls-2{fill:#5270de;}.cls-3{fill:#242831;}</style></defs><path class="cls-1" d="M1566.64,983.17c-151.61,38.57-343.21,69.23-570.14,69.68-615,1.22-977.69-224.34-977.69-224.34V825C11,820.76,4.7,817.25,0,814.56V1080H1927V850.74C1868.1,881.31,1745.32,937.72,1566.64,983.17Z" transform="translate(1.8 -797.49)"/><path class="cls-2" d="M1922,798c-.35,1.22.35-.8,0,.3l-3.3,11.48s-262.21,165.85-725.54,212.35c-54.62,5.48-112,9.3-172.15,11q-32.1.9-65.21,1-37.94.08-74.54-1c-59.56-1.7-116.52-5.52-170.76-11C312.28,981.88,60.52,852.24,0,818.09V1080H1920S1926.15,783.55,1922,798Z" transform="translate(1.8 -797.49)"/><path class="cls-3" d="M1564.84,984c-151.61,38.57-343.21,69.23-570.14,69.68C379.7,1054.92,17,829.36,17,829.36v-3.51C9.2,821.61,2.9,818.1-1.8,815.41v265.44h1927V851.59C1866.3,882.16,1743.52,938.57,1564.84,984Z" transform="translate(1.8 -797.49)"/></svg>