<svg xmlns="http://www.w3.org/2000/svg" width="28.707" height="18.808" viewBox="0 0 28.707 18.808">
  <g id="australia" transform="translate(0 -88.275)">
    <path id="Контур_105" data-name="Контур 105" d="M26.557,88.275H2.15A2.15,2.15,0,0,0,0,90.425v14.508a2.15,2.15,0,0,0,2.15,2.15H26.557a2.15,2.15,0,0,0,2.15-2.15V90.425A2.15,2.15,0,0,0,26.557,88.275Z" transform="translate(0 0)" fill="#41479b"/>
    <path id="Контур_106" data-name="Контур 106" d="M.495,97.679h.86l4.585-3v3H8.414v-3l4.585,3h.86a.5.5,0,0,0,.495-.495v-.393L10.42,94.214h3.933V91.74H10.42l3.933-2.577V88.77a.5.5,0,0,0-.495-.495H13l-4.585,3v-3H5.939v3L1.505,88.374a2.155,2.155,0,0,0-1.217.977L3.934,91.74H0v2.475H3.933L0,96.791v.393A.5.5,0,0,0,.495,97.679Z" transform="translate(0 0)" fill="#f5f5f5"/>
    <g id="Сгруппировать_255" data-name="Сгруппировать 255" transform="translate(0 88.275)">
      <path id="Контур_107" data-name="Контур 107" d="M14.353,92.235H7.919v-3.96H6.434v3.96H0v1.485H6.434v3.96H7.919v-3.96h6.434Z" transform="translate(0 -88.275)" fill="#ff4b55"/>
      <path id="Контур_108" data-name="Контур 108" d="M8.227,96.876,12.3,99.52h.909l-4.625-3A2.162,2.162,0,0,0,8.227,96.876Z" transform="translate(-7.766 -96.056)" fill="#ff4b55"/>
      <path id="Контур_109" data-name="Контур 109" d="M150.978,91.74l4.955-3.216a.488.488,0,0,0-.42-.248h-.107l-5.337,3.465Z" transform="translate(-141.655 -88.275)" fill="#ff4b55"/>
      <path id="Контур_110" data-name="Контур 110" d="M6.214,194.206l-4.945,3.21a.489.489,0,0,0,.424.254h.093l5.337-3.465Z" transform="translate(-1.198 -188.267)" fill="#ff4b55"/>
      <path id="Контур_111" data-name="Контур 111" d="M162.524,197.215l-4.635-3.008h-.909l5.263,3.416A.49.49,0,0,0,162.524,197.215Z" transform="translate(-148.178 -188.268)" fill="#ff4b55"/>
    </g>
    <g id="Сгруппировать_256" data-name="Сгруппировать 256" transform="translate(4.966 91.57)">
      <path id="Контур_112" data-name="Контур 112" d="M90.933,302.8l.374,1.233,1.2-.477a.111.111,0,0,1,.133.166l-.731,1.061,1.119.639a.111.111,0,0,1-.047.207l-1.286.09.2,1.273a.111.111,0,0,1-.192.092l-.872-.949-.872.949a.111.111,0,0,1-.192-.092l.2-1.273-1.286-.09a.111.111,0,0,1-.047-.207l1.119-.639-.731-1.061a.111.111,0,0,1,.133-.166l1.2.477.374-1.233A.111.111,0,0,1,90.933,302.8Z" transform="translate(-88.573 -293.993)" fill="#f5f5f5"/>
      <path id="Контур_113" data-name="Контур 113" d="M373.865,147.079l.182.6.585-.233a.054.054,0,0,1,.065.081l-.357.518.547.312a.054.054,0,0,1-.023.1l-.628.044.1.622a.054.054,0,0,1-.094.045l-.426-.464-.426.464a.054.054,0,0,1-.094-.045l.1-.622-.628-.044a.054.054,0,0,1-.023-.1l.547-.312-.357-.518a.054.054,0,0,1,.065-.081l.585.233.182-.6A.054.054,0,0,1,373.865,147.079Z" transform="translate(-356.78 -147.041)" fill="#f5f5f5"/>
      <path id="Контур_114" data-name="Контур 114" d="M301.291,229.555l.183.6.585-.233a.054.054,0,0,1,.065.081l-.357.518.547.312a.054.054,0,0,1-.023.1l-.628.044.1.622a.054.054,0,0,1-.094.045l-.426-.464-.426.464a.054.054,0,0,1-.094-.045l.1-.622-.628-.044a.054.054,0,0,1-.023-.1l.547-.312-.357-.518a.054.054,0,0,1,.065-.081l.585.233.182-.6A.054.054,0,0,1,301.291,229.555Z" transform="translate(-288.276 -224.892)" fill="#f5f5f5"/>
      <path id="Контур_115" data-name="Контур 115" d="M442.533,194.245l.182.6.585-.233a.054.054,0,0,1,.065.081l-.357.518.547.312a.054.054,0,0,1-.023.1l-.628.044.1.622a.054.054,0,0,1-.094.045l-.426-.464-.426.464a.054.054,0,0,1-.094-.045l.1-.622-.628-.044a.054.054,0,0,1-.023-.1l.547-.312-.357-.518a.054.054,0,0,1,.065-.081l.585.233.183-.6A.054.054,0,0,1,442.533,194.245Z" transform="translate(-421.598 -191.562)" fill="#f5f5f5"/>
      <path id="Контур_116" data-name="Контур 116" d="M373.865,335.487l.182.6.585-.233a.054.054,0,0,1,.065.081l-.357.518.547.312a.054.054,0,0,1-.023.1l-.628.044.1.622a.054.054,0,0,1-.094.045l-.426-.464-.426.464a.054.054,0,0,1-.094-.045l.1-.622-.628-.044a.054.054,0,0,1-.023-.1l.547-.312-.357-.518a.054.054,0,0,1,.065-.081l.585.233.182-.6A.054.054,0,0,1,373.865,335.487Z" transform="translate(-356.78 -324.884)" fill="#f5f5f5"/>
      <path id="Контур_117" data-name="Контур 117" d="M407.154,248.794l-.146.439-.463,0a.062.062,0,0,0-.037.113l.372.275-.14.442a.062.062,0,0,0,.1.07l.377-.269.377.269a.062.062,0,0,0,.1-.07l-.14-.442.373-.275a.062.062,0,0,0-.037-.113l-.463,0-.147-.439A.062.062,0,0,0,407.154,248.794Z" transform="translate(-388.658 -243.049)" fill="#f5f5f5"/>
    </g>
  </g>
</svg>
