<svg xmlns="http://www.w3.org/2000/svg" xmlns:xlink="http://www.w3.org/1999/xlink" width="52" height="52" viewBox="0 0 52 52">
  <defs>
    <linearGradient id="linear-gradient" x1="0.5" x2="0.5" y2="1" gradientUnits="objectBoundingBox">
      <stop offset="0" stop-color="#0ea5d3"/>
      <stop offset="1" stop-color="#5477c9"/>
    </linearGradient>
    <clipPath id="clip-path">
      <rect id="Прямоугольник_5" data-name="Прямоугольник 5" width="52" height="52" stroke="#707070" stroke-width="1" fill="url(#linear-gradient)"/>
    </clipPath>
  </defs>
  <g id="Сгруппировать_186" data-name="Сгруппировать 186" transform="translate(-167 -1251.978)">
    <g id="Группа_масок_7" data-name="Группа масок 7" transform="translate(167 1251.978)" clip-path="url(#clip-path)">
      <g id="target" transform="translate(1.296 0.02)">
        <g id="Сгруппировать_177" data-name="Сгруппировать 177" transform="translate(0)">
          <g id="Сгруппировать_176" data-name="Сгруппировать 176">
            <path id="Контур_33" data-name="Контур 33" d="M49.734,4.268H46.51V1.007a1.007,1.007,0,0,0-2.015,0V4.859L40.284,9.082A23.035,23.035,0,0,0,8.507,42.421a23.409,23.409,0,0,0,2.131,1.887L5.089,49.855A1.007,1.007,0,1,0,6.514,51.28L12.3,45.493a23.074,23.074,0,0,0,25.042-.035l5.822,5.822a1.007,1.007,0,0,0,1.425-1.425L39,44.268a23.436,23.436,0,0,0,2.081-1.847,23.054,23.054,0,0,0,4.467-26.292A1.007,1.007,0,1,0,43.737,17a20.824,20.824,0,0,1,2.079,9.127A21.021,21.021,0,1,1,38.86,10.509l-3.536,3.545a16.055,16.055,0,1,0,1.432,1.417l4.259-4.27,0,0,0,0,4.9-4.911h3.814a1.007,1.007,0,1,0,0-2.015ZM38.318,22.458A14.016,14.016,0,1,1,33.9,15.484l-4.159,4.17a8.175,8.175,0,1,0,1.438,1.412L35.331,16.9A14,14,0,0,1,38.318,22.458Zm-14.1,4.159a1.008,1.008,0,0,0,1.425,0l4.1-4.112A6.152,6.152,0,1,1,28.3,21.1l-4.085,4.1A1.007,1.007,0,0,0,24.219,26.617Z" transform="translate(-1.76)" fill="url(#linear-gradient)"/>
          </g>
        </g>
        <g id="Сгруппировать_179" data-name="Сгруппировать 179" transform="translate(39.925 12.455)">
          <g id="Сгруппировать_178" data-name="Сгруппировать 178">
            <circle id="Эллипс_7" data-name="Эллипс 7" cx="1.007" cy="1.007" r="1.007" fill="url(#linear-gradient)"/>
          </g>
        </g>
      </g>
    </g>
  </g>
</svg>
