<svg xmlns="http://www.w3.org/2000/svg" xmlns:xlink="http://www.w3.org/1999/xlink" width="55" height="55" viewBox="0 0 55 55">
  <defs>
    <linearGradient id="linear-gradient" x1="0.5" x2="0.5" y2="1" gradientUnits="objectBoundingBox">
      <stop offset="0" stop-color="#0ea5d3"/>
      <stop offset="1" stop-color="#5477c9"/>
    </linearGradient>
    <clipPath id="clip-path">
      <rect id="Прямоугольник_5" data-name="Прямоугольник 5" width="55" height="55" transform="translate(0 -0.075)" stroke="#707070" stroke-width="1" fill="url(#linear-gradient)"/>
    </clipPath>
  </defs>
  <g id="Сгруппировать_185" data-name="Сгруппировать 185" transform="translate(-167 -1251.755)">
    <g id="Группа_масок_6" data-name="Группа масок 6" transform="translate(167 1251.83)" clip-path="url(#clip-path)">
      <g id="startup" transform="translate(0 0.308)">
        <g id="Сгруппировать_167" data-name="Сгруппировать 167" transform="translate(0 52.305)">
          <g id="Сгруппировать_166" data-name="Сгруппировать 166">
            <circle id="Эллипс_5" data-name="Эллипс 5" cx="1.076" cy="1.076" r="1.076" fill="url(#linear-gradient)"/>
          </g>
        </g>
        <g id="Сгруппировать_169" data-name="Сгруппировать 169" transform="translate(27.492 25.011)">
          <g id="Сгруппировать_168" data-name="Сгруппировать 168">
            <circle id="Эллипс_6" data-name="Эллипс 6" cx="1.074" cy="1.074" r="1.074" fill="url(#linear-gradient)"/>
          </g>
        </g>
        <g id="Сгруппировать_171" data-name="Сгруппировать 171" transform="translate(34.83 11.129)">
          <g id="Сгруппировать_170" data-name="Сгруппировать 170">
            <path id="Контур_30" data-name="Контур 30" d="M52.311,15.765a4.57,4.57,0,1,0,0,6.466A4.541,4.541,0,0,0,52.311,15.765Zm-1.519,4.946a2.424,2.424,0,1,1,0-3.428A2.426,2.426,0,0,1,50.793,20.712Z" transform="translate(-44.509 -14.426)" fill="url(#linear-gradient)"/>
          </g>
        </g>
        <g id="Сгруппировать_173" data-name="Сгруппировать 173" transform="translate(3.461 40.561)">
          <g id="Сгруппировать_172" data-name="Сгруппировать 172">
            <path id="Контур_31" data-name="Контур 31" d="M14.379,55.336a1.074,1.074,0,0,0-1.44.483l-1.279,2.569a3.545,3.545,0,0,1-2.92,1.949l-1.488.1a.637.637,0,0,1-.678-.679l.1-1.488a3.545,3.545,0,0,1,1.949-2.92l2.569-1.279a1.074,1.074,0,1,0-.958-1.923L7.666,53.43a5.7,5.7,0,0,0-3.135,4.7l-.1,1.488a2.785,2.785,0,0,0,2.778,2.975c.063,0,.127,0,.19-.007l1.488-.1a5.7,5.7,0,0,0,4.7-3.135l1.279-2.569A1.074,1.074,0,0,0,14.379,55.336Z" transform="translate(-4.423 -52.038)" fill="url(#linear-gradient)"/>
          </g>
        </g>
        <g id="Сгруппировать_175" data-name="Сгруппировать 175" transform="translate(0.002 0)">
          <g id="Сгруппировать_174" data-name="Сгруппировать 174">
            <path id="Контур_32" data-name="Контур 32" d="M54.036.92a2.487,2.487,0,0,0-1.9-.71l-1,.064A32.408,32.408,0,0,0,28.107,12.149l-2.354,2.9-6.161-.181h-.031A18.172,18.172,0,0,0,6.627,20.223l-6.31,6.31a1.074,1.074,0,0,0,.7,1.832l13.357.686-.545.67a1.074,1.074,0,0,0-.11,1.19q.314.577.657,1.136l-3.167,3.76a1.075,1.075,0,0,0-.149,1.151,13.986,13.986,0,0,0,6.715,6.715,1.074,1.074,0,0,0,1.136-.137c.682-.554,1.469-1.21,2.23-1.845.542-.453,1.1-.915,1.616-1.342q.464.279.941.54a1.074,1.074,0,0,0,1.172-.095l.732-.568.689,13.413a1.074,1.074,0,0,0,1.832.7l6.31-6.31A18.172,18.172,0,0,0,39.794,35.1V29.217l2.489-1.932A32.279,32.279,0,0,0,54.749,3.335l.026-.523A2.489,2.489,0,0,0,54.036.92ZM3.544,26.344l4.6-4.6a16.039,16.039,0,0,1,11.4-4.728l4.5.132-7.993,9.841Zm16.225,13.7c-.561.468-1.136.947-1.669,1.386a11.8,11.8,0,0,1-4.785-4.781L15.633,33.9a24.9,24.9,0,0,0,2.3,2.667l0,0h0a24.9,24.9,0,0,0,2.957,2.542C20.522,39.416,20.142,39.732,19.769,40.044ZM37.646,35.1a16.038,16.038,0,0,1-4.728,11.415l-4.6,4.6-.642-12.5,9.972-7.738V35.1ZM52.6,3.23A30.133,30.133,0,0,1,40.967,25.588L24.121,38.661a22.744,22.744,0,0,1-3.891-2.872l5.679-5.679A1.074,1.074,0,0,0,24.39,28.59l-5.674,5.674a22.741,22.741,0,0,1-2.754-3.756L29.775,13.5A30.253,30.253,0,0,1,51.269,2.417l1-.064a.339.339,0,0,1,.36.354Z" transform="translate(-0.002 -0.204)" fill="url(#linear-gradient)"/>
          </g>
        </g>
      </g>
    </g>
  </g>
</svg>
