<svg id="Сгруппировать_183" data-name="Сгруппировать 183" xmlns="http://www.w3.org/2000/svg" xmlns:xlink="http://www.w3.org/1999/xlink" width="55.504" height="55.504" viewBox="0 0 55.504 55.504">
  <defs>
    <linearGradient id="linear-gradient" x1="0.5" x2="0.5" y2="1" gradientUnits="objectBoundingBox">
      <stop offset="0" stop-color="#5270de"/>
      <stop offset="1" stop-color="#0ea5d3"/>
    </linearGradient>
    <clipPath id="clip-path">
      <rect id="Прямоугольник_5" data-name="Прямоугольник 5" width="55.504" height="55.504" stroke="#707070" stroke-width="1" fill="url(#linear-gradient)"/>
    </clipPath>
  </defs>
  <g id="Группа_масок_4" data-name="Группа масок 4" transform="translate(0 0)" clip-path="url(#clip-path)">
    <g id="social-care" transform="translate(0)">
      <g id="Сгруппировать_143" data-name="Сгруппировать 143" transform="translate(8.306 51.037)">
        <g id="Сгруппировать_142" data-name="Сгруппировать 142">
          <path id="Контур_19" data-name="Контур 19" d="M14.076,67.121l-1.632-2.3a1.084,1.084,0,1,0-1.768,1.255l1.632,2.3a1.084,1.084,0,1,0,1.768-1.255Z" transform="translate(-10.476 -64.366)" fill="url(#linear-gradient)"/>
        </g>
      </g>
      <g id="Сгруппировать_145" data-name="Сгруппировать 145" transform="translate(0 16.96)">
        <g id="Сгруппировать_144" data-name="Сгруппировать 144">
          <path id="Контур_20" data-name="Контур 20" d="M24.414,58.627l-1.776-8.465a15.965,15.965,0,0,0-6.752-10.023l-3.792-2.55a3.815,3.815,0,0,0-4.835.494V25.02a3.629,3.629,0,0,0-5.9-2.83A3.612,3.612,0,0,0,0,25.02V41.829A10.5,10.5,0,0,0,1.949,47.94l1.933,2.723A1.084,1.084,0,1,0,5.65,49.408L3.717,46.684a8.344,8.344,0,0,1-1.548-4.856V25.02a1.461,1.461,0,1,1,2.922,0V38.356a7.574,7.574,0,0,0,1.954,5.086c.054.065.109.129.168.191.72.763,1.566,1.662,2.364,2.509l1.116,1.188.011.011,1.674,1.781a1.084,1.084,0,1,0,1.58-1.484c-.02-.021-1.289-1.372-2.738-2.913L8.733,42.078l-.018-.02a1.829,1.829,0,0,1,.035-2.4,1.639,1.639,0,0,1,2.134-.272l3.792,2.55a13.808,13.808,0,0,1,5.84,8.669l1.776,8.465a1.084,1.084,0,1,0,2.122-.445Z" transform="translate(0 -21.39)" fill="url(#linear-gradient)"/>
        </g>
      </g>
      <g id="Сгруппировать_147" data-name="Сгруппировать 147" transform="translate(6.058 47.87)">
        <g id="Сгруппировать_146" data-name="Сгруппировать 146">
          <path id="Контур_21" data-name="Контур 21" d="M9.614,60.836l-.007-.01a1.084,1.084,0,0,0-1.765,1.259l.007.01a1.084,1.084,0,0,0,1.765-1.259Z" transform="translate(-7.64 -60.371)" fill="url(#linear-gradient)"/>
        </g>
      </g>
      <g id="Сгруппировать_149" data-name="Сгруппировать 149" transform="translate(31.067 16.961)">
        <g id="Сгруппировать_148" data-name="Сгруппировать 148">
          <path id="Контур_22" data-name="Контур 22" d="M62.26,22.19a3.629,3.629,0,0,0-5.9,2.83V38.083a3.815,3.815,0,0,0-4.835-.494l-3.792,2.55A15.964,15.964,0,0,0,40.98,50.162L39.2,58.627a1.084,1.084,0,1,0,2.122.445L43.1,50.607a13.808,13.808,0,0,1,5.84-8.669l3.792-2.55a1.639,1.639,0,0,1,2.134.272,1.829,1.829,0,0,1,.038,2.395l-.02.023-5.224,5.558a1.084,1.084,0,1,0,1.58,1.484c.015-.016,4.444-4.726,5.164-5.488.059-.062.114-.126.168-.191a7.575,7.575,0,0,0,1.954-5.086V25.02a1.461,1.461,0,1,1,2.922,0V41.829A8.344,8.344,0,0,1,59.9,46.685l-8.19,11.537a1.084,1.084,0,1,0,1.768,1.255l8.19-11.537a10.5,10.5,0,0,0,1.949-6.111V25.02A3.613,3.613,0,0,0,62.26,22.19Z" transform="translate(-39.181 -21.39)" fill="url(#linear-gradient)"/>
        </g>
      </g>
      <g id="Сгруппировать_151" data-name="Сгруппировать 151" transform="translate(10.124 5.854)">
        <g id="Сгруппировать_150" data-name="Сгруппировать 150">
          <path id="Контур_23" data-name="Контур 23" d="M44.127,22.306,42.2,21.845V21.5a4.849,4.849,0,0,0,2.075-3.975V15.017a4.848,4.848,0,0,0-8-3.688,6.33,6.33,0,0,0-11.731.009,4.848,4.848,0,0,0-8.01,3.679v2.507A4.849,4.849,0,0,0,18.608,21.5v.346l-1.929.461a5.078,5.078,0,0,0-3.911,4.955v2.025a1.084,1.084,0,0,0,1.084,1.084h4.981c-.008.131-.013.264-.013.4v3.9A1.084,1.084,0,0,0,19.9,35.749h6.516a1.084,1.084,0,1,0,0-2.168H25.3v-2.24a1.084,1.084,0,0,0-2.168,0v2.24H20.989V30.767a4.489,4.489,0,0,1,3.453-4.379l2.975-.713,1.991,4.529a1.084,1.084,0,0,0,.992.648h0a1.084,1.084,0,0,0,.992-.648l1.989-4.523,2.965.708A4.488,4.488,0,0,1,39.8,30.77v2.811H37.659v-2.24a1.084,1.084,0,0,0-2.168,0v2.24H34.263a1.084,1.084,0,1,0,0,2.168h6.625a1.084,1.084,0,0,0,1.084-1.084V30.77c0-.134-.005-.267-.013-.4h5a1.084,1.084,0,0,0,1.084-1.084V27.262A5.078,5.078,0,0,0,44.127,22.306Zm-4.705-9.973A2.687,2.687,0,0,1,42.1,14.84H40.592a7.9,7.9,0,0,1-3.635-.886A2.687,2.687,0,0,1,39.422,12.333Zm-2.684,5.033c0-.053,0-.105,0-.158v-.965a10.07,10.07,0,0,0,3.85.766h1.513v.516a2.684,2.684,0,1,1-5.367,0ZM26.246,13.715h0a4.164,4.164,0,0,1,8.275-.662L32.7,11.981a1.084,1.084,0,0,0-1.38.238,4.671,4.671,0,0,1-3.588,1.675H26.246Zm-4.861-1.382a2.688,2.688,0,0,1,2.464,1.621,7.9,7.9,0,0,1-3.635.886H18.707A2.687,2.687,0,0,1,21.384,12.333ZM18.7,17.008h1.513a10.07,10.07,0,0,0,3.854-.768v1.284a2.684,2.684,0,0,1-5.367,0v-.516Zm5.236,7.272A6.648,6.648,0,0,0,19.33,28.2H14.936v-.941a2.917,2.917,0,0,1,2.247-2.847l2.761-.66a1.084,1.084,0,0,0,.832-1.054v-.364a4.706,4.706,0,0,0,1.212,0v.309c0,.016,0,.032,0,.048a1.086,1.086,0,0,0,.881,1.067l1.617.387ZM26.961,22.6a5.086,5.086,0,0,0-.868-.293l-1.937-.464V21.5a4.891,4.891,0,0,0,.94-.858,6.382,6.382,0,0,0,1.865,1.869V22.6Zm4.708,1.593L30.4,27.075l-1.271-2.893v-.774a6.353,6.353,0,0,0,2.54,0ZM30.41,21.371a4.168,4.168,0,0,1-4.164-4.164V16.062h1.482a6.83,6.83,0,0,0,4.606-1.779L34.57,15.6v1.77A4.168,4.168,0,0,1,30.41,21.371Zm3.427,1.23v-.073a6.38,6.38,0,0,0,1.881-1.874,4.891,4.891,0,0,0,.932.849v.338l-1.937.464A5.1,5.1,0,0,0,33.837,22.6ZM45.87,28.2H41.461a6.647,6.647,0,0,0-4.61-3.92l-.544-.13,1.626-.39a1.085,1.085,0,0,0,.886-1.068c0-.008,0-.017,0-.025v-.333a4.706,4.706,0,0,0,1.212,0V22.7a1.084,1.084,0,0,0,.832,1.054l2.761.66a2.918,2.918,0,0,1,2.247,2.847V28.2Z" transform="translate(-12.768 -7.383)" fill="url(#linear-gradient)"/>
        </g>
      </g>
      <g id="Сгруппировать_153" data-name="Сгруппировать 153" transform="translate(26.668 32.053)">
        <g id="Сгруппировать_152" data-name="Сгруппировать 152">
          <path id="Контур_24" data-name="Контур 24" d="M35.483,40.74a1.085,1.085,0,1,0,.318.768A1.093,1.093,0,0,0,35.483,40.74Z" transform="translate(-33.633 -40.423)" fill="url(#linear-gradient)"/>
        </g>
      </g>
      <g id="Сгруппировать_155" data-name="Сгруппировать 155" transform="translate(26.667)">
        <g id="Сгруппировать_154" data-name="Сгруппировать 154">
          <path id="Контур_25" data-name="Контур 25" d="M34.716,0a1.084,1.084,0,0,0-1.084,1.084V2.706a1.084,1.084,0,0,0,2.168,0V1.084A1.084,1.084,0,0,0,34.716,0Z" transform="translate(-33.632)" fill="url(#linear-gradient)"/>
        </g>
      </g>
      <g id="Сгруппировать_157" data-name="Сгруппировать 157" transform="translate(20.771 2.083)">
        <g id="Сгруппировать_156" data-name="Сгруппировать 156">
          <path id="Контур_26" data-name="Контур 26" d="M29.183,4.08,28.045,2.944a1.084,1.084,0,1,0-1.532,1.534L27.65,5.614A1.084,1.084,0,1,0,29.183,4.08Z" transform="translate(-26.195 -2.627)" fill="url(#linear-gradient)"/>
        </g>
      </g>
      <g id="Сгруппировать_159" data-name="Сгруппировать 159" transform="translate(31.41 2.111)">
        <g id="Сгруппировать_158" data-name="Сгруппировать 158">
          <path id="Контур_27" data-name="Контур 27" d="M42.592,2.979a1.084,1.084,0,0,0-1.533,0L39.931,4.109a1.084,1.084,0,1,0,1.534,1.532l1.128-1.129A1.084,1.084,0,0,0,42.592,2.979Z" transform="translate(-39.614 -2.662)" fill="url(#linear-gradient)"/>
        </g>
      </g>
    </g>
  </g>
</svg>
