<svg xmlns="http://www.w3.org/2000/svg" width="29.629" height="19.413" viewBox="0 0 29.629 19.413">
  <g id="canada" transform="translate(0 -88.273)">
    <rect id="Прямоугольник_1699" data-name="Прямоугольник 1699" width="16.347" height="19.412" transform="translate(6.641 88.273)" fill="#f5f5f5"/>
    <g id="Сгруппировать_2716" data-name="Сгруппировать 2716" transform="translate(0 88.273)">
      <path id="Контур_223" data-name="Контур 223" d="M2.219,88.273A2.219,2.219,0,0,0,0,90.492v14.974a2.219,2.219,0,0,0,2.219,2.219H6.641V88.273Z" transform="translate(0 -88.273)" fill="#ff4b55"/>
      <path id="Контур_224" data-name="Контур 224" d="M401.663,88.273h-4.422v19.412h4.422a2.219,2.219,0,0,0,2.219-2.219V90.492A2.219,2.219,0,0,0,401.663,88.273Z" transform="translate(-374.253 -88.273)" fill="#ff4b55"/>
      <path id="Контур_225" data-name="Контур 225" d="M159.3,160.493l3.031-1.732-.7-.348a.511.511,0,0,1-.278-.524l.226-1.7-1.283.373a.511.511,0,0,1-.641-.38l-.123-.556-1.205,1.41a.253.253,0,0,1-.442-.207l.515-2.992-.788.215a.511.511,0,0,1-.585-.252l-.83-1.555v0h0v0l-.83,1.555a.511.511,0,0,1-.586.252L154,153.84l.515,2.992a.253.253,0,0,1-.442.207l-1.205-1.41-.123.556a.511.511,0,0,1-.641.38l-1.283-.373.226,1.7a.511.511,0,0,1-.278.524l-.7.348,3.031,1.732a.738.738,0,0,1,.325.9l-.259.693,2.6-.222a.241.241,0,0,1,.262.248l-.082,2.78h.511l-.082-2.78a.241.241,0,0,1,.262-.248l2.6.222-.259-.693A.738.738,0,0,1,159.3,160.493Z" transform="translate(-141.387 -148.544)" fill="#ff4b55"/>
    </g>
  </g>
</svg>
