<svg xmlns="http://www.w3.org/2000/svg" xmlns:xlink="http://www.w3.org/1999/xlink" width="20" height="20" viewBox="0 0 20 20">
  <defs>
    <clipPath id="clip-path">
      <rect id="Прямоугольник_103" data-name="Прямоугольник 103" width="20" height="20" transform="translate(50 1448)" fill="#e9ecf1" stroke="#707070" stroke-width="1"/>
    </clipPath>
  </defs>
  <g id="Группа_масок_21" data-name="Группа масок 21" transform="translate(-50 -1448)" clip-path="url(#clip-path)">
    <g id="placeholder" transform="translate(50 1448)">
      <g id="Сгруппировать_219" data-name="Сгруппировать 219">
        <path id="Контур_68" data-name="Контур 68" d="M10,0A7.387,7.387,0,0,0,2.688,7.443c0,2.3,1.161,5.082,3.451,8.282a36.494,36.494,0,0,0,3.4,4.082.654.654,0,0,0,.918.01,32.941,32.941,0,0,0,3.4-3.979c2.292-3.152,3.454-5.977,3.454-8.4A7.387,7.387,0,0,0,10,0Zm0,10.657a3.575,3.575,0,1,1,3.575-3.575A3.579,3.579,0,0,1,10,10.657Z"/>
      </g>
    </g>
  </g>
</svg>
