<svg xmlns="http://www.w3.org/2000/svg" width="28.707" height="18.809" viewBox="0 0 28.707 18.809">
  <g id="united-kingdom" transform="translate(0)">
    <path id="Контур_84" data-name="Контур 84" d="M26.557,88.276H2.15A2.15,2.15,0,0,0,0,90.426v14.508a2.15,2.15,0,0,0,2.15,2.15H26.557a2.15,2.15,0,0,0,2.15-2.15V90.426A2.15,2.15,0,0,0,26.557,88.276Z" transform="translate(0 -88.276)" fill="#41479b"/>
    <path id="Контур_85" data-name="Контур 85" d="M28.677,90.07a2.15,2.15,0,0,0-2.12-1.795H26l-9.169,6.008V88.275h-4.95v6.008L2.709,88.275H2.15A2.15,2.15,0,0,0,.03,90.07L7.867,95.2H0v4.95H7.867L.03,105.289a2.15,2.15,0,0,0,2.12,1.795h.559l9.169-6.008v6.008h4.95v-6.008L26,107.083h.559a2.15,2.15,0,0,0,2.12-1.795l-7.837-5.135h7.867V95.2H20.84Z" transform="translate(0 -88.275)" fill="#f5f5f5"/>
    <g id="Сгруппировать_223" data-name="Сгруппировать 223" transform="translate(0 0)">
      <path id="Контур_86" data-name="Контур 86" d="M15.838,88.276h-2.97V96.2H0v2.97H12.869v7.919h2.97V99.165H28.707V96.2H15.838Z" transform="translate(0 -88.276)" fill="#ff4b55"/>
      <path id="Контур_87" data-name="Контур 87" d="M10.1,306.929l10.461-6.791H18.74l-9.516,6.177A2.153,2.153,0,0,0,10.1,306.929Z" transform="translate(-8.707 -288.259)" fill="#ff4b55"/>
      <path id="Контур_88" data-name="Контур 88" d="M315.778,300.138H313.96l10.133,6.577a2.16,2.16,0,0,0,.689-.733Z" transform="translate(-296.357 -288.259)" fill="#ff4b55"/>
      <path id="Контур_89" data-name="Контур 89" d="M4.049,96.606l8.844,5.741h1.818L4.69,95.842A2.159,2.159,0,0,0,4.049,96.606Z" transform="translate(-3.822 -95.418)" fill="#ff4b55"/>
      <path id="Контур_90" data-name="Контур 90" d="M301.956,97.425l9.534-6.189a2.153,2.153,0,0,0-.88-.609l-10.472,6.8Z" transform="translate(-283.31 -90.495)" fill="#ff4b55"/>
    </g>
  </g>
</svg>
